<svg width="61" height="62" viewBox="0 0 61 62" fill="none" xmlns="http://www.w3.org/2000/svg">
<path d="M55 31.1572C55 44.6882 44.031 55.6572 30.5 55.6572C16.969 55.6572 6 44.6882 6 31.1572C6 17.6263 16.969 6.65723 30.5 6.65723C44.031 6.65723 55 17.6263 55 31.1572Z" fill="white"/>
<path fill-rule="evenodd" clip-rule="evenodd" d="M61 31.1572C61 48.0019 47.3447 61.6572 30.5 61.6572C13.6553 61.6572 0 48.0019 0 31.1572C0 14.3125 13.6553 0.657227 30.5 0.657227C47.3447 0.657227 61 14.3125 61 31.1572ZM30.5 55.6572C44.031 55.6572 55 44.6882 55 31.1572C55 17.6263 44.031 6.65723 30.5 6.65723C16.969 6.65723 6 17.6263 6 31.1572C6 44.6882 16.969 55.6572 30.5 55.6572Z" fill="url(#paint0_linear_44_1936)"/>
<path d="M49.3417 46.7973C51.8567 43.7714 53.6059 40.1841 54.4414 36.3392C55.2768 32.4942 55.1739 28.5046 54.1413 24.7078C53.1087 20.911 51.1769 17.4188 48.5092 14.5265C45.8416 11.6342 42.5165 9.42697 38.8154 8.09152C35.1143 6.75607 31.1459 6.33168 27.2461 6.85425C23.3463 7.37682 19.6297 8.83098 16.4107 11.0937C13.1917 13.3565 10.5651 16.3612 8.75295 19.8538C6.94084 23.3463 5.99656 27.224 6.00001 31.1587C6.00133 36.8786 8.017 42.4153 11.6933 46.7973L11.6583 46.8271C11.7809 46.9742 11.921 47.1003 12.0471 47.2456C12.2047 47.426 12.3746 47.5959 12.5374 47.771C13.0278 48.3034 13.5321 48.8148 14.061 49.2946C14.2221 49.4417 14.3885 49.5783 14.5514 49.7184C15.1118 50.2018 15.6879 50.6606 16.2851 51.0879C16.3622 51.1404 16.4322 51.2087 16.5093 51.263V51.242C20.6109 54.1283 25.5039 55.6774 30.5193 55.6774C35.5347 55.6774 40.4277 54.1283 44.5293 51.242V51.263C44.6063 51.2087 44.6746 51.1404 44.7534 51.0879C45.3488 50.6588 45.9268 50.2018 46.4872 49.7184C46.65 49.5783 46.8164 49.44 46.9775 49.2946C47.5064 48.813 48.0107 48.3034 48.5011 47.771C48.664 47.5959 48.8321 47.426 48.9914 47.2456C49.1158 47.1003 49.2576 46.9742 49.3802 46.8253L49.3417 46.7973ZM30.5175 17.1487C32.0762 17.1487 33.5998 17.6108 34.8958 18.4768C36.1917 19.3427 37.2018 20.5735 37.7983 22.0135C38.3947 23.4535 38.5508 25.038 38.2467 26.5667C37.9426 28.0954 37.1921 29.4996 36.09 30.6017C34.9878 31.7039 33.5836 32.4544 32.0549 32.7585C30.5263 33.0626 28.9417 32.9065 27.5017 32.31C26.0617 31.7136 24.8309 30.7035 23.965 29.4075C23.0991 28.1116 22.6369 26.5879 22.6369 25.0293C22.6369 22.9392 23.4672 20.9347 24.9451 19.4568C26.423 17.9789 28.4274 17.1487 30.5175 17.1487V17.1487ZM16.5198 46.7973C16.5501 44.4979 17.4846 42.3028 19.121 40.6871C20.7574 39.0714 22.9641 38.1648 25.2638 38.1637H35.7713C38.0709 38.1648 40.2776 39.0714 41.914 40.6871C43.5504 42.3028 44.4849 44.4979 44.5153 46.7973C40.6745 50.2584 35.6877 52.1738 30.5175 52.1738C25.3474 52.1738 20.3605 50.2584 16.5198 46.7973V46.7973Z" fill="#D99690"/>
<defs>
<linearGradient id="paint0_linear_44_1936" x1="10" y1="53.1572" x2="53" y2="10.1572" gradientUnits="userSpaceOnUse">
<stop stop-color="#CF9E83"/>
<stop offset="1" stop-color="#F4C0A8"/>
</linearGradient>
</defs>
</svg>
